<?xml version="1.0" standalone="no"?>
<!DOCTYPE svg PUBLIC "-//W3C//DTD SVG 20010904//EN"
 "http://www.w3.org/TR/2001/REC-SVG-20010904/DTD/svg10.dtd">
<svg version="1.0" xmlns="http://www.w3.org/2000/svg"
 width="512.000000pt" height="512.000000pt" viewBox="0 0 512.000000 512.000000"
 preserveAspectRatio="xMidYMid meet">

<g transform="translate(0.000000,512.000000) scale(0.100000,-0.100000)"
fill="#000000" stroke="none">
<path d="M1766 5105 c-22 -8 -54 -26 -72 -40 -61 -46 -80 -95 -126 -319 l-43
-209 -70 -27 c-38 -14 -84 -34 -102 -43 -18 -9 -39 -17 -47 -17 -9 0 -93 51
-188 114 -184 122 -235 143 -314 132 -70 -9 -101 -30 -222 -150 -121 -118
-149 -159 -158 -231 -11 -78 10 -129 132 -313 63 -95 114 -179 114 -188 0 -8
-8 -29 -17 -47 -9 -18 -29 -63 -43 -102 l-27 -70 -203 -42 c-112 -23 -217 -48
-234 -55 -50 -21 -111 -89 -131 -147 -14 -42 -16 -81 -13 -219 4 -188 13 -219
84 -282 53 -46 75 -53 284 -95 102 -20 192 -38 201 -41 8 -2 23 -28 33 -57 9
-28 29 -79 45 -112 l27 -60 -117 -178 c-65 -97 -123 -196 -130 -220 -13 -50
-6 -123 17 -174 25 -55 230 -258 284 -282 55 -25 145 -27 198 -6 20 9 112 66
204 127 l168 111 77 -35 c43 -20 94 -41 114 -47 l36 -12 38 -192 c44 -226 62
-274 121 -326 63 -55 101 -63 305 -59 l176 3 49 30 c81 50 99 92 148 331 l42
209 100 40 c84 35 101 46 116 74 14 29 15 39 4 65 -16 40 -54 54 -104 39 -102
-31 -224 -81 -241 -98 -14 -15 -31 -77 -61 -230 -23 -115 -46 -225 -51 -242
-18 -57 -37 -63 -202 -63 l-149 0 -27 27 c-24 25 -32 51 -71 248 -24 121 -49
232 -56 246 -10 20 -33 34 -106 59 -51 19 -129 51 -173 72 -52 25 -88 37 -103
33 -12 -3 -110 -64 -218 -135 -157 -105 -202 -130 -230 -130 -30 0 -47 12
-130 92 -97 94 -124 130 -124 167 0 11 61 111 135 223 74 112 135 213 135 225
0 11 -23 71 -50 132 -28 61 -50 113 -50 116 0 23 -46 117 -61 125 -10 6 -119
31 -241 55 -122 25 -232 52 -245 60 -36 24 -43 55 -43 193 0 108 3 132 19 159
22 35 9 31 334 97 103 21 176 41 188 51 10 10 30 54 45 99 15 44 44 116 65
158 22 43 39 89 39 102 0 15 -55 109 -136 233 -118 181 -135 212 -130 238 8
39 198 232 237 240 36 8 57 -3 271 -147 111 -73 187 -118 203 -118 14 0 60 17
103 39 42 21 114 50 158 65 45 15 89 35 99 46 11 13 34 99 65 255 26 129 53
242 59 249 25 30 69 38 205 34 184 -4 172 9 226 -263 23 -115 46 -225 51 -243
11 -34 34 -50 104 -72 22 -7 89 -35 148 -61 60 -27 119 -49 130 -49 12 0 113
61 225 135 112 74 212 135 223 135 37 0 73 -27 167 -124 80 -83 92 -100 92
-130 0 -28 -25 -73 -130 -230 -71 -108 -132 -206 -135 -218 -4 -15 8 -51 33
-103 21 -44 53 -122 72 -173 25 -73 39 -96 59 -106 14 -7 125 -32 246 -56 197
-39 223 -47 248 -71 l27 -27 0 -149 c0 -165 -6 -184 -63 -202 -17 -5 -126 -29
-242 -51 -231 -46 -243 -52 -265 -123 -6 -23 -27 -81 -46 -129 -37 -95 -36
-122 8 -152 59 -41 103 -6 155 123 l38 95 208 42 c240 49 282 67 332 148 l30
49 3 176 c4 204 -4 242 -59 305 -52 59 -100 77 -326 121 l-192 38 -12 36 c-6
20 -27 71 -47 114 l-35 77 111 168 c61 92 118 184 127 204 21 53 19 143 -6
198 -24 54 -227 259 -282 284 -51 23 -124 30 -174 17 -24 -7 -123 -65 -220
-130 l-178 -117 -60 27 c-33 16 -84 36 -112 45 -29 10 -55 25 -57 33 -3 9 -21
99 -41 201 -42 209 -49 231 -95 284 -64 72 -93 81 -290 83 -134 2 -184 -1
-214 -12z"/>
<path d="M1818 4050 c-173 -31 -354 -121 -465 -231 -49 -47 -55 -81 -22 -123
36 -45 78 -37 165 34 83 66 186 120 284 146 102 28 293 26 390 -5 233 -72 403
-226 490 -443 41 -103 54 -191 47 -322 -5 -109 -21 -171 -71 -288 -33 -77 29
-142 109 -112 41 16 111 217 123 357 40 443 -227 836 -653 962 -72 22 -116 28
-220 30 -71 2 -151 0 -177 -5z"/>
<path d="M1910 3639 c-110 -12 -207 -59 -289 -140 -96 -97 -142 -209 -142
-349 0 -138 46 -246 145 -343 130 -128 294 -173 463 -128 176 46 308 177 354
353 45 171 0 334 -128 464 -109 111 -247 160 -403 143z m174 -179 c146 -55
237 -217 205 -368 -15 -75 -38 -119 -90 -171 -207 -206 -559 -60 -559 233 0
76 12 114 57 183 34 52 108 110 168 131 51 18 159 14 219 -8z"/>
<path d="M1132 3480 c-45 -42 -77 -218 -69 -375 19 -376 268 -700 626 -814
160 -52 349 -58 511 -16 83 21 257 104 298 143 40 38 43 82 7 117 -33 34 -71
32 -131 -6 -337 -215 -783 -133 -1009 186 -55 78 -88 143 -116 235 -30 95 -33
289 -6 386 9 34 17 75 17 91 0 62 -82 96 -128 53z"/>
<path d="M3645 2621 c-79 -36 -100 -76 -136 -253 l-23 -117 -54 -22 c-30 -12
-60 -22 -66 -22 -7 0 -52 27 -101 60 -124 83 -146 93 -205 93 -73 0 -105 -18
-197 -111 -90 -92 -103 -116 -103 -190 0 -57 13 -86 99 -213 l60 -89 -16 -36
c-8 -20 -25 -64 -36 -99 -20 -58 -20 -66 -6 -90 8 -15 28 -33 44 -41 25 -12
32 -12 61 4 26 14 37 30 50 69 9 28 30 77 45 108 45 89 41 105 -56 250 -47 70
-85 133 -85 141 0 16 121 137 138 137 7 0 70 -38 140 -85 145 -97 161 -101
250 -56 31 15 81 36 110 46 66 21 72 34 108 215 14 74 31 141 36 148 7 8 40
12 98 12 58 0 91 -4 98 -12 5 -7 22 -74 36 -148 36 -185 40 -191 118 -220 34
-12 84 -33 110 -46 75 -38 93 -34 238 61 72 47 136 85 143 85 16 0 137 -122
137 -138 0 -7 -38 -70 -85 -140 -95 -142 -100 -162 -62 -240 13 -26 34 -76 47
-110 28 -78 35 -82 220 -118 74 -14 141 -31 148 -36 8 -7 12 -40 12 -98 0 -58
-4 -91 -12 -98 -7 -5 -83 -24 -168 -41 -173 -35 -177 -37 -206 -124 -9 -28
-27 -73 -40 -99 -39 -78 -34 -98 61 -240 47 -70 85 -133 85 -141 0 -16 -121
-137 -138 -137 -7 0 -70 38 -140 85 -142 95 -162 100 -240 61 -26 -13 -71 -31
-99 -40 -87 -29 -89 -33 -124 -206 -17 -85 -36 -161 -41 -167 -7 -9 -40 -13
-98 -13 -58 0 -91 4 -98 13 -5 6 -22 73 -36 147 -36 185 -40 192 -118 220 -34
13 -84 34 -110 47 -78 38 -98 33 -240 -62 -70 -47 -133 -85 -141 -85 -7 0 -41
29 -76 64 -46 46 -62 70 -59 83 3 11 42 74 87 141 92 139 96 153 52 240 -15
31 -36 81 -46 110 -21 66 -34 72 -215 108 -74 14 -141 31 -148 37 -9 7 -12 36
-10 101 l3 91 37 17 c69 33 85 91 38 138 -25 25 -72 25 -125 1 -89 -41 -115
-98 -115 -253 0 -128 15 -175 68 -220 38 -32 65 -41 209 -69 l112 -22 22 -55
c12 -30 22 -60 22 -66 0 -7 -27 -52 -60 -101 -83 -124 -93 -146 -93 -205 0
-74 20 -107 120 -204 95 -92 120 -103 206 -93 35 4 72 22 161 82 l115 76 63
-26 63 -27 21 -111 c28 -144 37 -171 69 -209 45 -53 92 -68 222 -68 130 0 177
15 222 68 32 38 41 65 69 209 l22 112 62 26 62 27 117 -78 c106 -71 122 -78
175 -82 80 -6 113 12 215 118 92 95 103 120 93 206 -4 35 -22 72 -82 161 l-77
116 27 62 26 62 112 22 c144 28 171 37 209 69 53 45 68 92 68 222 0 130 -15
177 -68 222 -38 32 -65 41 -209 69 l-111 21 -27 63 -26 63 76 115 c60 89 78
126 82 161 10 86 -1 111 -93 206 -97 100 -130 120 -204 120 -59 0 -81 -10
-205 -93 -49 -33 -94 -60 -101 -60 -6 0 -36 10 -66 22 l-55 22 -22 112 c-28
144 -37 171 -69 209 -45 53 -92 68 -222 68 -91 0 -123 -4 -155 -19z"/>
<path d="M3668 1751 c-81 -26 -135 -61 -195 -123 -82 -88 -123 -189 -123 -308
0 -118 41 -220 123 -307 119 -126 296 -174 458 -123 81 25 160 77 172 112 11
36 -9 78 -46 96 -26 13 -34 11 -103 -23 -140 -69 -260 -55 -357 42 -219 219
16 582 306 473 98 -37 187 -156 187 -251 0 -85 80 -129 135 -74 19 18 25 35
25 67 0 62 -26 153 -60 213 -35 61 -120 144 -176 173 -105 54 -241 66 -346 33z"/>
</g>
</svg>
