<?xml version="1.0" standalone="no"?>
<!DOCTYPE svg PUBLIC "-//W3C//DTD SVG 20010904//EN"
 "http://www.w3.org/TR/2001/REC-SVG-20010904/DTD/svg10.dtd">
<svg version="1.0" xmlns="http://www.w3.org/2000/svg"
 width="800.000000pt" height="800.000000pt" viewBox="0 0 800.000000 800.000000"
 preserveAspectRatio="xMidYMid meet">

<g transform="translate(0.000000,800.000000) scale(0.100000,-0.100000)"
fill="#000000" stroke="none">
<path d="M0 4000 l0 -4000 4000 0 4000 0 0 4000 0 4000 -4000 0 -4000 0 0
-4000z m4259 1261 c53 -27 130 -115 185 -210 77 -133 133 -269 260 -631 48
-135 89 -252 92 -260 7 -20 30 25 99 195 44 107 261 683 316 838 l13 37 113 0
c93 0 113 -3 113 -15 0 -26 -394 -1100 -489 -1335 l-29 -70 19 -60 c23 -73 50
-128 84 -169 62 -73 110 -25 208 209 55 130 85 208 272 705 95 253 197 522
226 598 l54 137 112 0 c86 0 113 -3 113 -13 0 -26 -549 -1492 -630 -1684 -26
-62 -62 -135 -79 -162 -56 -87 -132 -131 -228 -131 -69 0 -129 27 -174 78 -71
81 -194 380 -364 887 -135 400 -208 571 -301 702 -55 77 -104 118 -172 143
-57 22 -142 26 -173 10 -11 -6 -19 -7 -19 -1 0 19 83 132 118 161 72 59 188
78 261 41z m-2054 -77 c11 -3 26 -17 32 -32 6 -15 94 -211 195 -437 102 -225
234 -518 293 -650 190 -424 265 -555 320 -555 33 0 98 77 129 155 l25 64 -45
98 c-25 54 -51 112 -59 128 -7 17 -25 55 -38 85 -136 300 -497 1128 -497 1141
0 12 219 7 229 -5 5 -6 101 -218 214 -471 228 -514 314 -692 327 -679 5 5 52
112 105 237 112 267 168 382 239 492 122 186 242 251 363 195 44 -19 130 -94
163 -140 l18 -26 -76 1 c-97 0 -152 -27 -233 -112 -107 -112 -181 -252 -324
-614 -155 -392 -283 -658 -348 -727 -55 -58 -101 -77 -192 -77 -70 0 -87 4
-134 30 -112 62 -102 43 -733 1465 -77 173 -151 339 -164 369 -13 29 -24 57
-24 62 0 9 181 12 215 3z m1919 -831 c20 -20 62 -88 95 -152 59 -118 94 -196
291 -656 145 -338 212 -466 275 -532 77 -80 136 -83 271 -13 40 21 74 36 74
32 0 -18 -96 -155 -131 -187 -148 -134 -318 -118 -434 40 -103 140 -127 187
-290 565 -172 399 -183 418 -225 405 -26 -8 -50 -56 -194 -389 -144 -330 -192
-426 -269 -539 -72 -105 -114 -142 -186 -163 -102 -30 -205 8 -302 114 -48 51
-119 162 -105 162 3 0 27 -14 53 -30 50 -32 130 -60 170 -60 12 0 41 7 64 17
85 34 160 171 389 708 169 398 277 620 328 674 50 53 79 54 126 4z"/>
</g>
</svg>
