<?xml version="1.0" standalone="no"?>
<!DOCTYPE svg PUBLIC "-//W3C//DTD SVG 20010904//EN"
 "http://www.w3.org/TR/2001/REC-SVG-20010904/DTD/svg10.dtd">
<svg version="1.0" xmlns="http://www.w3.org/2000/svg"
 width="980.000000pt" height="980.000000pt" viewBox="0 0 980.000000 980.000000"
 preserveAspectRatio="xMidYMid meet">

<g transform="translate(0.000000,980.000000) scale(0.100000,-0.100000)"
fill="#000000" stroke="none">
<path d="M7425 9210 l-590 -590 893 -893 892 -892 590 590 590 590 -893 893
-892 892 -590 -590z"/>
<path d="M3542 5327 l-2683 -2683 -428 -1319 c-236 -726 -429 -1321 -427
-1322 1 -1 595 191 1320 426 l1318 428 896 896 c494 493 1702 1702 2687 2687
l1790 1790 -890 890 c-489 490 -892 890 -895 890 -3 0 -1212 -1207 -2688
-2683z m2838 1618 l145 -145 -2218 -2218 -2217 -2217 -147 148 -148 147 2215
2215 c1218 1218 2217 2215 2220 2215 3 0 70 -65 150 -145z"/>
</g>
</svg>
