<?xml version="1.0" standalone="no"?>
<!DOCTYPE svg PUBLIC "-//W3C//DTD SVG 20010904//EN"
 "http://www.w3.org/TR/2001/REC-SVG-20010904/DTD/svg10.dtd">
<svg version="1.0" xmlns="http://www.w3.org/2000/svg"
 width="512.000000pt" height="512.000000pt" viewBox="0 0 512.000000 512.000000"
 preserveAspectRatio="xMidYMid meet">

<g transform="translate(0.000000,512.000000) scale(0.100000,-0.100000)"
fill="#000000" stroke="none">
<path d="M2066 5029 c-62 -15 -153 -68 -197 -116 -22 -24 -55 -74 -72 -111
-29 -62 -32 -77 -35 -194 l-4 -128 -136 0 c-168 0 -202 -10 -267 -75 -57 -56
-75 -102 -75 -189 l0 -56 -216 0 c-141 0 -231 -4 -258 -12 -55 -16 -138 -99
-154 -154 -8 -28 -12 -129 -12 -313 l0 -272 25 -24 c22 -23 32 -25 120 -25
l95 0 0 -1536 c0 -1177 3 -1546 12 -1578 16 -55 99 -138 154 -154 32 -9 387
-12 1516 -12 1666 0 1533 -7 1611 80 24 26 49 66 55 88 9 30 12 418 12 1576
l0 1536 95 0 c88 0 98 2 120 25 l25 24 0 272 c0 181 -4 285 -12 311 -6 22 -31
62 -55 88 -66 74 -94 80 -355 80 l-218 0 0 56 c0 81 -18 129 -67 184 -61 68
-103 80 -274 80 l-137 0 -4 128 c-3 117 -6 132 -35 194 -43 92 -100 151 -191
196 l-76 37 -475 2 c-268 1 -493 -3 -515 -8z m968 -161 c55 -16 138 -99 154
-154 7 -23 12 -85 12 -138 l0 -96 -640 0 -640 0 0 96 c0 53 5 115 12 138 15
51 99 137 148 153 52 16 899 17 954 1z m621 -573 c21 -20 25 -34 25 -80 l0
-55 -1120 0 -1120 0 0 55 c0 46 4 60 25 80 l24 25 1071 0 1071 0 24 -25z m640
-320 c25 -24 25 -24 25 -240 l0 -215 -1760 0 -1760 0 0 215 c0 216 0 216 25
240 l24 25 1711 0 1711 0 24 -25z m-215 -2150 l0 -1536 -25 -24 -24 -25 -1471
0 -1471 0 -24 25 -25 24 0 1536 0 1535 1520 0 1520 0 0 -1535z"/>
<path d="M1465 3255 l-25 -24 0 -1231 0 -1231 25 -24 c24 -25 26 -25 215 -25
189 0 191 0 215 25 l25 24 0 1231 0 1231 -25 24 c-24 25 -26 25 -215 25 -189
0 -191 0 -215 -25z m295 -1255 l0 -1120 -80 0 -80 0 0 1120 0 1120 80 0 80 0
0 -1120z"/>
<path d="M2345 3255 l-25 -24 0 -1231 0 -1231 25 -24 c24 -25 26 -25 215 -25
189 0 191 0 215 25 l25 24 0 1231 0 1231 -25 24 c-24 25 -26 25 -215 25 -189
0 -191 0 -215 -25z m295 -1255 l0 -1120 -80 0 -80 0 0 1120 0 1120 80 0 80 0
0 -1120z"/>
<path d="M3225 3255 l-25 -24 0 -1231 0 -1231 25 -24 c24 -25 26 -25 215 -25
189 0 191 0 215 25 l25 24 0 1231 0 1231 -25 24 c-24 25 -26 25 -215 25 -189
0 -191 0 -215 -25z m295 -1255 l0 -1120 -80 0 -80 0 0 1120 0 1120 80 0 80 0
0 -1120z"/>
<path d="M1225 535 c-16 -15 -25 -36 -25 -55 0 -19 9 -40 25 -55 l24 -25 351
0 351 0 24 25 c16 15 25 36 25 55 0 19 -9 40 -25 55 l-24 25 -351 0 -351 0
-24 -25z"/>
<path d="M2105 535 c-16 -15 -25 -36 -25 -55 0 -19 9 -40 25 -55 21 -22 33
-25 95 -25 62 0 74 3 95 25 16 15 25 36 25 55 0 19 -9 40 -25 55 -21 22 -33
25 -95 25 -62 0 -74 -3 -95 -25z"/>
</g>
</svg>
